Patient4_TMGait_0pt5_02_right_20_GRF.mot
version=1
nRows=45
nColumns=19
inDegrees=no
endheader
time	F1x	F1y	F1z	M1x	M1y	M1z	F2x	F2y	F2z	M2x	M2y	M2z	EC1x	EC1y	EC1z	EC2x	EC2y	EC2z
25.95	8.7841	759.0088	74.1901	-270.5831	-50.1133	587.1719	-1.1266	-3.4578	15.2327	-6.249	-10.9266	3.8729	-0.0592	0.0182	-0.0073	-0.0462	0.0165	0.9585
25.9631	15.783	754.4004	73.4308	-268.2744	-47.859	583.1175	-0.94475	-1.3709	10.3463	-3.8931	-7.398	3.4551	-0.0592	0.0182	-0.0073	-0.0462	0.0165	0.9585
25.9763	22.4778	749.139	72.8766	-265.7161	-45.642	577.8817	-0.83476	0.45073	6.1222	-1.8516	-4.2899	3.197	-0.0592	0.0182	-0.0073	-0.0462	0.0165	0.9585
25.9894	28.4371	743.6799	72.5549	-263.0851	-43.6071	571.9263	-0.79542	1.8989	2.8624	-0.2576	-1.8531	3.0848	-0.0592	0.0182	-0.0073	-0.0462	0.0165	0.9585
26.0026	33.4133	738.5004	72.4493	-260.5445	-41.8549	565.8348	-0.79476	2.9547	0.5697	0.87715	-0.11049	3.068	-0.0592	0.0182	-0.0073	-0.0462	0.0165	0.9585
26.0157	37.2935	734.05	72.5221	-258.2383	-40.4475	560.1842	-0.83858	3.6668	-0.87352	1.611	1.0132	3.1305	-0.0592	0.0182	-0.0073	-0.0462	0.0165	0.9585
26.0289	40.0719	730.6956	72.7141	-256.2833	-39.3971	555.4443	-0.89776	4.071	-1.6695	2.0172	1.6568	3.2035	-0.0592	0.0182	-0.0073	-0.0462	0.0165	0.9585
26.042	41.801	728.6803	72.9767	-254.7543	-38.6963	551.9366	-0.96477	4.2001	-2.0033	2.1678	1.9501	3.2298	-0.0592	0.0182	-0.0073	-0.0462	0.0165	0.9585
26.0551	42.5997	728.0993	73.271	-253.6822	-38.3131	549.7954	-1.0331	4.0474	-2.0555	2.1135	2.028	3.1229	-0.0592	0.0182	-0.0073	-0.0462	0.0165	0.9585
26.0683	42.5969	728.9535	73.591	-253.0726	-38.2253	549.036	-1.0874	3.5645	-1.9469	1.8785	1.9747	2.765	-0.0592	0.0182	-0.0073	-0.0462	0.0165	0.9585
26.0814	41.9726	731.223	73.9306	-252.9307	-38.3851	549.5864	-1.123	2.6715	-1.7686	1.4612	1.8568	2.036	-0.0592	0.0182	-0.0073	-0.0462	0.0165	0.9585
26.0946	40.9352	734.9078	74.291	-253.2705	-38.7292	551.3487	-1.1013	1.2604	-1.5639	0.84092	1.6919	0.79282	-0.0592	0.0182	-0.0073	-0.0462	0.0165	0.9585
26.1077	39.7547	740.0041	74.6759	-254.106	-39.1646	554.1978	-0.99745	-0.7383	-1.3524	-0.00028435	1.482	-1.042	-0.0592	0.0182	-0.0073	-0.0462	0.0165	0.9585
26.1209	38.7247	746.4264	75.1113	-255.4225	-39.601	557.9402	-0.76501	-3.3344	-1.1285	-1.0587	1.2007	-3.4962	-0.0592	0.0182	-0.0073	-0.0462	0.0165	0.9585
26.134	38.1247	753.9075	75.6248	-257.1376	-39.9528	562.2671	-0.36062	-6.3796	-0.87608	-2.2731	0.81399	-6.4299	-0.0592	0.0182	-0.0073	-0.0462	0.0165	0.9585
26.1471	38.221	761.897	76.2301	-259.0686	-40.1348	566.6865	0.26588	-9.4871	-0.56824	-3.4889	0.27684	-9.4767	-0.0592	0.0182	-0.0073	-0.0462	0.0165	0.9585
26.1603	39.195	769.5564	76.8855	-260.9313	-40.0495	570.5627	1.1471	-11.9213	-0.1814	-4.4146	-0.44382	-11.931	-0.0592	0.0182	-0.0073	-0.0462	0.0165	0.9585
26.1734	41.1583	775.7415	77.4949	-262.3404	-39.5886	573.0633	2.2787	-12.4857	0.29176	-4.5783	-1.3461	-12.6409	-0.0592	0.0182	-0.0073	-0.0462	0.0165	0.9585
26.1866	44.1049	779.1169	77.9235	-262.8478	-38.6639	573.2648	3.5976	-9.4573	0.82309	-3.3007	-2.3684	-9.9469	-0.0592	0.0182	-0.0073	-0.0462	0.0165	0.9585
26.1997	47.9416	778.2757	78.0193	-261.9855	-37.2124	570.2249	4.9172	-0.55233	1.3365	0.31288	-3.3529	-1.6299	-0.0592	0.0182	-0.0073	-0.0462	0.0165	0.9585
26.2129	52.4723	771.8322	77.6431	-259.2979	-35.2154	563.04	5.9006	16.9347	1.6884	7.3159	-4.0143	14.9475	-0.0592	0.0182	-0.0073	-0.0462	0.0165	0.9585
26.226	57.3813	758.4918	76.6749	-254.3621	-32.7082	550.8875	5.9912	45.7857	1.6519	18.7801	-3.9036	42.5185	-0.0592	0.0182	-0.0073	-0.0462	0.0165	0.9585
26.2391	62.2472	737.0202	75.0142	-246.7788	-29.7741	532.9852	4.3689	88.2231	0.89658	35.5458	-2.3736	83.304	-0.0592	0.0182	-0.0073	-0.0462	0.0165	0.9585
26.2523	66.4922	706.2634	72.5356	-236.1757	-26.5236	508.6336	-0.1999	145.0056	-0.96339	57.8597	1.433	138.1577	-0.0592	0.0182	-0.0073	-0.0462	0.0165	0.9585
26.2654	69.4382	665.2571	69.0917	-222.2407	-23.0822	477.2673	-9.0417	214.1437	-4.3272	84.8776	8.4023	205.3277	-0.0592	0.0182	-0.0073	-0.0462	0.0165	0.9585
26.2786	70.4061	613.5676	64.5537	-204.8318	-19.5915	438.693	-22.1483	290.2123	-9.4381	114.4146	18.7256	279.7067	-0.0592	0.0182	-0.0073	-0.0462	0.0165	0.9585
26.2917	68.8423	551.7159	58.8842	-184.1157	-16.2142	393.3555	-37.5807	366.0719	-16.1641	143.6594	31.4727	354.3082	-0.0592	0.0182	-0.0073	-0.0462	0.0165	0.9585
26.3049	64.4427	481.6118	52.2215	-160.7038	-13.1505	342.6391	-53.0617	436.7387	-23.8904	170.6744	45.1176	424.0097	-0.0592	0.0182	-0.0073	-0.0462	0.0165	0.9585
26.318	57.2587	406.528	44.8676	-135.6496	-10.5877	288.8404	-66.8461	500.6625	-31.8692	194.897	58.2511	486.9358	-0.0592	0.0182	-0.0073	-0.0462	0.0165	0.9585
26.3311	47.7315	330.6273	37.2272	-110.3059	-8.6507	234.8339	-77.8507	557.94	-39.3331	216.4396	69.7185	542.8961	-0.0592	0.0182	-0.0073	-0.0462	0.0165	0.9585
26.3443	36.6673	258.3193	29.7269	-86.124	-7.3537	183.6246	-85.5976	608.742	-45.8836	235.4346	78.9634	591.8899	-0.0592	0.0182	-0.0073	-0.0462	0.0165	0.9585
26.3574	25.1342	193.485	22.7697	-64.402	-6.5983	137.8252	-89.9584	652.9089	-51.3429	251.8723	85.7873	633.6472	-0.0592	0.0182	-0.0073	-0.0462	0.0165	0.9585
26.3706	14.2511	138.6874	16.677	-46.0163	-6.2057	99.1397	-91.0989	690.1046	-55.7669	265.6499	90.3177	667.8387	-0.0592	0.0182	-0.0073	-0.0462	0.0165	0.9585
26.3837	4.911	94.8287	11.6122	-31.2962	-5.9732	68.1389	-89.2882	719.872	-59.1877	276.6113	92.7055	694.0683	-0.0592	0.0182	-0.0073	-0.0462	0.0165	0.9585
26.3969	-2.3234	61.4277	7.5979	-20.1017	-5.7244	44.4669	-85.036	741.8101	-61.7157	284.6089	93.2542	712.1197	-0.0592	0.0182	-0.0073	-0.0462	0.0165	0.9585
26.41	-7.1465	37.1131	4.565	-11.9841	-5.3171	27.1579	-78.9492	755.8149	-63.3627	289.6167	92.2167	722.0815	-0.0592	0.0182	-0.0073	-0.0462	0.0165	0.9585
26.4231	-9.4958	20.131	2.3932	-6.3552	-4.6654	14.994	-71.6775	762.3477	-64.2018	291.8216	89.9204	724.6002	-0.0592	0.0182	-0.0073	-0.0462	0.0165	0.9585
26.4363	-9.6115	8.7706	0.92475	-2.6356	-3.7517	6.7846	-63.8432	762.4735	-64.2901	291.6407	86.6662	720.8721	-0.0592	0.0182	-0.0073	-0.0462	0.0165	0.9585
26.4494	-8.1731	1.6955	0.022841	-0.36284	-2.7104	1.6172	-55.9915	757.7248	-63.7628	289.6694	82.8017	712.4666	-0.0592	0.0182	-0.0073	-0.0462	0.0165	0.9585
26.4626	-6.0772	-2.1091	-0.4617	0.81994	-1.7246	-1.1868	-48.6398	750.0231	-62.7538	286.6442	78.659	701.2746	-0.0592	0.0182	-0.0073	-0.0462	0.0165	0.9585
26.4757	-3.9092	-3.6311	-0.64573	1.2529	-0.91108	-2.3193	-42.1514	741.4813	-61.447	283.3743	74.5703	689.266	-0.0592	0.0182	-0.0073	-0.0462	0.0165	0.9585
26.4889	-2.0113	-3.7084	-0.65103	1.2194	-0.29425	-2.3787	-36.799	734.2553	-60.0165	280.6761	70.8219	678.4186	-0.0592	0.0182	-0.0073	-0.0462	0.0165	0.9585
26.502	-0.51408	-3.0049	-0.54567	0.93964	0.1244	-1.8714	-32.6969	730.1379	-58.6331	279.2277	67.6297	670.3226	-0.0592	0.0182	-0.0073	-0.0462	0.0165	0.9585
26.5151	0.54896	-1.9779	-0.40563	0.5655	0.38888	-1.1202	-29.8603	730.325	-57.4079	279.472	65.1045	666.026	-0.0592	0.0182	-0.0073	-0.0462	0.0165	0.9585
26.5283	1.235	-0.92434	-0.26242	0.19464	0.53439	-0.33816	-28.1813	735.2811	-56.391	281.5704	63.252	665.9029	-0.0592	0.0182	-0.0073	-0.0462	0.0165	0.9585
